<?xml version="1.0" standalone="no"?>
<svg width="567.429" height="551.799" viewBox="0 0 567.429 551.799" xmlns="http://www.w3.org/2000/svg" shape-rendering="crispEdges">
<title>
/home/long/data/rootscripts/general/measurement.svg
</title>
<desc>
Creator: ROOT Version 6.30/02
CreationDate: Tue Oct 22 20:32:54 2024</desc>
<defs>
</defs>
<rect x="0.5" y="0" width="566.929" height="551.299" fill="white"/>
<rect x="87.8838" y="55.0589" width="453.97" height="441.182" fill="white"/>
<rect x="87.8838" y="55.0589" width="453.97" height="441.182" fill="none" stroke="black"/>
<rect x="87.8838" y="55.0589" width="453.97" height="441.182" fill="white"/>
<rect x="87.8838" y="55.0589" width="453.97" height="441.182" fill="none" stroke="black"/>
<path d="M87.8838,495.692h 3.02646v 0.0844739h 6.05293v -0.147829h 3.02646v 0.337895h 6.05293v -0.168948h 3.02646v -0.147829h 3.02646v -0.0633554h 3.02646v -0.591317h 3.02646v -0.0844739h 3.02646v -0.126711h 3.02646v 0.316777h 3.02646v -0.211185h
 3.02646v -0.0422369h 3.02646v -0.232303h 3.02646v -0.0211185h 3.02646v -1.7106h 3.02646v -3.16777h 3.02646v -10.8338h 3.02646v -23.0402h 3.02646v -25.8279h 3.02646v -18.1196h 3.02646v -7.32811h 3.02646v 1.05592h 3.02646v 3.16777h 3.02646v 8.27844h
 3.02646v 4.58271h 3.02646v 2.30191h 3.02646v 3.42119h 3.02646v -5.68087h 3.02646v -18.5209h 3.02646v -34.5076h 3.02646v -40.5897h 3.02646v -50.3253h 3.02646v -37.5698h 3.02646v -28.3199h 3.02646v -14.3606h 3.02646v -17.3171h 3.02646v 0.0844739h
 3.02646v 0.401251h 3.02646v 5.61751h 3.02646v 10.4959h 3.02646v 4.94172h 3.02646v 4.3504h 3.02646v 6.14547h 3.02646v 4.98396h 3.02646v 7.53929h 3.02646v 0.464606h 3.02646v 2.09073h 3.02646v 1.87954h 3.02646v 3.75909h 3.02646v 2.42862h 3.02646v
 2.42862h 3.02646v -0.105592h 3.02646v -3.06218h 3.02646v 0.633554h 3.02646v 2.25968h 3.02646v -2.57645h 3.02646v 2.47086h 3.02646v -7.2014h 3.02646v -16.409h 3.02646v -0.527962h 3.02646v -2.30191h 3.02646v 1.79507h 3.02646v 1.26711h 3.02646v
 -4.41376h 3.02646v -0.82362h 3.02646v -7.30699h 3.02646v -7.28587h 3.02646v -19.4712h 3.02646v -11.0027h 3.02646v -12.7556h 3.02646v -10.4536h 3.02646v -5.06843h 3.02646v -12.9879h 3.02646v -5.87093h 3.02646v -12.2065h 3.02646v -9.27101h 3.02646v
 -1.9429h 3.02646v -10.0313h 3.02646v -7.07469h 3.02646v 6.22995h 3.02646v -2.78764h 3.02646v 16.8314h 3.02646v 15.1842h 3.02646v 18.4998h 3.02646v 21.2241h 3.02646v 25.4266h 3.02646v 25.49h 3.02646v 27.623h 3.02646v 24.8353h 3.02646v 25.9335h
 3.02646v 18.4153h 3.02646v 19.9781h 3.02646v 23.885h 3.02646v 13.7904h 3.02646v 15.9867h 3.02646v 16.0712h 3.02646v 13.4102h 3.02646v 15.9656h 3.02646v 9.41884h 3.02646v 8.93311h 3.02646v 10.9394h 3.02646v 8.44739h 3.02646v 6.46225h 3.02646v
 7.45482h 3.02646v 4.83613h 3.02646v 4.47712h 3.02646v 3.33672h 3.02646v 2.47086h 3.02646v 2.66093h 3.02646v 1.73171h 3.02646v 0.54908h 3.02646v 1.16152h 3.02646v 1.01369h 3.02646v 0.739146h 3.02646v 0.190066h 3.02646v 0.971449h 3.02646v -0.253422h
 3.02646v 0.464606h 3.02646v 0.0633554h 3.02646v 0.570199h 3.02646v -0.380132h 3.02646v 0.316777h 3.02646v 0.105592h 3.02646v -0.0633554h 3.02646v 0.0633554h 3.02646v 0.27454h 3.02646v 0.0844739h 3.02646v -0.27454h 6.05293v 0.612436h 3.02646v
 -0.359014h 3.02646v -0.147829h 3.02646v 0.0844739h 3.02646v 0.105592h 3.02646v -0.0422369h 3.02646v -0.0844739h 3.02646v 0.0211185h 3.02646v 0.0844739h 3.02646v 0.0633554h 3.02646v 0.147829h 3.02646v 0.168948h 3.02646v -0.295659h 3.02646v 0.168948h
 3.02646v 0.0422369h 3.02646v -0.380132h 3.02646v 0.105592h 3.02646v 0.168948h 3.02646" fill="none" stroke="#ff0000" stroke-width="5"/>
<path d="M87.8838,496.241h 453.97" fill="none" stroke="black"/>
<path d="M87.8838,482.997v 13.2436" fill="none" stroke="black"/>
<path d="M103.016,489.619v 6.62181" fill="none" stroke="black"/>
<path d="M118.148,489.619v 6.62181" fill="none" stroke="black"/>
<path d="M133.281,489.619v 6.62181" fill="none" stroke="black"/>
<path d="M148.413,489.619v 6.62181" fill="none" stroke="black"/>
<path d="M163.545,482.997v 13.2436" fill="none" stroke="black"/>
<path d="M178.678,489.619v 6.62181" fill="none" stroke="black"/>
<path d="M193.81,489.619v 6.62181" fill="none" stroke="black"/>
<path d="M208.942,489.619v 6.62181" fill="none" stroke="black"/>
<path d="M224.075,489.619v 6.62181" fill="none" stroke="black"/>
<path d="M239.207,482.997v 13.2436" fill="none" stroke="black"/>
<path d="M254.339,489.619v 6.62181" fill="none" stroke="black"/>
<path d="M269.472,489.619v 6.62181" fill="none" stroke="black"/>
<path d="M284.604,489.619v 6.62181" fill="none" stroke="black"/>
<path d="M299.736,489.619v 6.62181" fill="none" stroke="black"/>
<path d="M314.869,482.997v 13.2436" fill="none" stroke="black"/>
<path d="M330.001,489.619v 6.62181" fill="none" stroke="black"/>
<path d="M345.133,489.619v 6.62181" fill="none" stroke="black"/>
<path d="M360.266,489.619v 6.62181" fill="none" stroke="black"/>
<path d="M375.398,489.619v 6.62181" fill="none" stroke="black"/>
<path d="M390.53,482.997v 13.2436" fill="none" stroke="black"/>
<path d="M405.663,489.619v 6.62181" fill="none" stroke="black"/>
<path d="M420.795,489.619v 6.62181" fill="none" stroke="black"/>
<path d="M435.927,489.619v 6.62181" fill="none" stroke="black"/>
<path d="M451.059,489.619v 6.62181" fill="none" stroke="black"/>
<path d="M466.192,482.997v 13.2436" fill="none" stroke="black"/>
<path d="M481.324,489.619v 6.62181" fill="none" stroke="black"/>
<path d="M496.456,489.619v 6.62181" fill="none" stroke="black"/>
<path d="M511.589,489.619v 6.62181" fill="none" stroke="black"/>
<path d="M526.721,489.619v 6.62181" fill="none" stroke="black"/>
<path d="M541.853,482.997v 13.2436" fill="none" stroke="black"/>
<text xml:space="preserve" x="72.9646" y="514.357" fill="black" font-size="18.2023" font-family="Helvetica">100</text>
<text xml:space="preserve" x="148.271" y="514.357" fill="black" font-size="18.2023" font-family="Helvetica">150</text>
<text xml:space="preserve" x="224.288" y="514.357" fill="black" font-size="18.2023" font-family="Helvetica">200</text>
<text xml:space="preserve" x="299.594" y="514.357" fill="black" font-size="18.2023" font-family="Helvetica">250</text>
<text xml:space="preserve" x="375.611" y="514.357" fill="black" font-size="18.2023" font-family="Helvetica">300</text>
<text xml:space="preserve" x="450.917" y="514.357" fill="black" font-size="18.2023" font-family="Helvetica">350</text>
<text xml:space="preserve" x="526.934" y="514.357" fill="black" font-size="18.2023" font-family="Helvetica">400</text>
<text xml:space="preserve" x="274.729" y="539.222" fill="black" font-size="20.7312" font-family="Helvetica" font-style="oblique">Channel</text>
<path d="M87.8838,496.241v -441.182" fill="none" stroke="black"/>
<path d="M101.494,496.241h -13.6107" fill="none" stroke="black"/>
<path d="M94.6892,485.681h -6.80534" fill="none" stroke="black"/>
<path d="M94.6892,475.122h -6.80534" fill="none" stroke="black"/>
<path d="M94.6892,464.563h -6.80534" fill="none" stroke="black"/>
<path d="M101.494,454.004h -13.6107" fill="none" stroke="black"/>
<path d="M94.6892,443.444h -6.80534" fill="none" stroke="black"/>
<path d="M94.6892,432.885h -6.80534" fill="none" stroke="black"/>
<path d="M94.6892,422.326h -6.80534" fill="none" stroke="black"/>
<path d="M101.494,411.767h -13.6107" fill="none" stroke="black"/>
<path d="M94.6892,401.207h -6.80534" fill="none" stroke="black"/>
<path d="M94.6892,390.648h -6.80534" fill="none" stroke="black"/>
<path d="M94.6892,380.089h -6.80534" fill="none" stroke="black"/>
<path d="M101.494,369.53h -13.6107" fill="none" stroke="black"/>
<path d="M94.6892,358.971h -6.80534" fill="none" stroke="black"/>
<path d="M94.6892,348.411h -6.80534" fill="none" stroke="black"/>
<path d="M94.6892,337.852h -6.80534" fill="none" stroke="black"/>
<path d="M101.494,327.293h -13.6107" fill="none" stroke="black"/>
<path d="M94.6892,316.734h -6.80534" fill="none" stroke="black"/>
<path d="M94.6892,306.174h -6.80534" fill="none" stroke="black"/>
<path d="M94.6892,295.615h -6.80534" fill="none" stroke="black"/>
<path d="M101.494,285.056h -13.6107" fill="none" stroke="black"/>
<path d="M94.6892,274.497h -6.80534" fill="none" stroke="black"/>
<path d="M94.6892,263.937h -6.80534" fill="none" stroke="black"/>
<path d="M94.6892,253.378h -6.80534" fill="none" stroke="black"/>
<path d="M101.494,242.819h -13.6107" fill="none" stroke="black"/>
<path d="M94.6892,232.26h -6.80534" fill="none" stroke="black"/>
<path d="M94.6892,221.701h -6.80534" fill="none" stroke="black"/>
<path d="M94.6892,211.141h -6.80534" fill="none" stroke="black"/>
<path d="M101.494,200.582h -13.6107" fill="none" stroke="black"/>
<path d="M94.6892,190.023h -6.80534" fill="none" stroke="black"/>
<path d="M94.6892,179.464h -6.80534" fill="none" stroke="black"/>
<path d="M94.6892,168.904h -6.80534" fill="none" stroke="black"/>
<path d="M101.494,158.345h -13.6107" fill="none" stroke="black"/>
<path d="M94.6892,147.786h -6.80534" fill="none" stroke="black"/>
<path d="M94.6892,137.227h -6.80534" fill="none" stroke="black"/>
<path d="M94.6892,126.667h -6.80534" fill="none" stroke="black"/>
<path d="M101.494,116.108h -13.6107" fill="none" stroke="black"/>
<path d="M94.6892,105.549h -6.80534" fill="none" stroke="black"/>
<path d="M94.6892,94.9897h -6.80534" fill="none" stroke="black"/>
<path d="M94.6892,84.4305h -6.80534" fill="none" stroke="black"/>
<path d="M101.494,73.8712h -13.6107" fill="none" stroke="black"/>
<path d="M101.494,73.8712h -13.6107" fill="none" stroke="black"/>
<path d="M94.6892,63.312h -6.80534" fill="none" stroke="black"/>
<text xml:space="preserve" x="75.8064" y="502.279" fill="black" font-size="18.2023" font-family="Helvetica">0</text>
<text xml:space="preserve" x="45.968" y="460.364" fill="black" font-size="18.2023" font-family="Helvetica">2000</text>
<text xml:space="preserve" x="45.968" y="417.737" fill="black" font-size="18.2023" font-family="Helvetica">4000</text>
<text xml:space="preserve" x="45.968" y="375.821" fill="black" font-size="18.2023" font-family="Helvetica">6000</text>
<text xml:space="preserve" x="45.968" y="333.195" fill="black" font-size="18.2023" font-family="Helvetica">8000</text>
<text xml:space="preserve" x="36.0219" y="291.279" fill="black" font-size="18.2023" font-family="Helvetica">10000</text>
<text xml:space="preserve" x="36.0219" y="248.653" fill="black" font-size="18.2023" font-family="Helvetica">12000</text>
<text xml:space="preserve" x="36.0219" y="206.737" fill="black" font-size="18.2023" font-family="Helvetica">14000</text>
<text xml:space="preserve" x="36.0219" y="164.111" fill="black" font-size="18.2023" font-family="Helvetica">16000</text>
<text xml:space="preserve" x="36.0219" y="122.195" fill="black" font-size="18.2023" font-family="Helvetica">18000</text>
<text xml:space="preserve" x="36.0219" y="79.569" fill="black" font-size="18.2023" font-family="Helvetica">20000</text>
<g transform="rotate(-90,23.9444,307.619)">
<text xml:space="preserve" x="23.9444" y="307.619" fill="black" font-size="20.7312" font-family="Helvetica" font-style="oblique">Events</text>
</g>
<text xml:space="preserve" x="200.843" y="31.2593" fill="black" font-size="26.4277" font-family="Helvetica">Cs Measurement</text>
<text xml:space="preserve" x="171.715" y="19.1818" fill="black" font-size="17.7851" font-family="Helvetica">137</text>
<text xml:space="preserve" x="166.032" y="31.2593" fill="black" font-size="26.4277" font-family="Helvetica"> </text></svg>
